<mxfile host="app.diagrams.net" modified="2022-12-27T07:22:14.411Z" agent="5.0 (Windows)" version="20.7.4" etag="jbCw7coGRyPSz7LDW98Z" type="github">
  <diagram id="iBsGuV9F1PI5YYrsjZtH" name="Page-1">
    <mxGraphModel dx="788" dy="401" grid="1" gridSize="10" guides="1" tooltips="1" connect="1" arrows="1" fold="1" page="1" pageScale="1" pageWidth="850" pageHeight="1100" math="0" shadow="0">
      <root>
        <mxCell id="0" />
        <mxCell id="1" parent="0" />
        <mxCell id="--gUQ8pjljUalN7oCMz1-12" style="edgeStyle=orthogonalEdgeStyle;rounded=0;orthogonalLoop=1;jettySize=auto;html=1;entryX=0.873;entryY=0.586;entryDx=0;entryDy=0;entryPerimeter=0;" edge="1" parent="1" target="--gUQ8pjljUalN7oCMz1-11">
          <mxGeometry relative="1" as="geometry">
            <mxPoint x="226" y="140.0322580645161" as="sourcePoint" />
            <mxPoint x="81.99627999999996" y="190" as="targetPoint" />
            <Array as="points">
              <mxPoint x="150" y="140" />
              <mxPoint x="150" y="189" />
            </Array>
          </mxGeometry>
        </mxCell>
        <mxCell id="--gUQ8pjljUalN7oCMz1-14" style="edgeStyle=orthogonalEdgeStyle;rounded=0;orthogonalLoop=1;jettySize=auto;html=1;entryX=1;entryY=0.5;entryDx=0;entryDy=0;entryPerimeter=0;" edge="1" parent="1" target="--gUQ8pjljUalN7oCMz1-10">
          <mxGeometry relative="1" as="geometry">
            <mxPoint x="226" y="140.0322580645161" as="sourcePoint" />
          </mxGeometry>
        </mxCell>
        <mxCell id="--gUQ8pjljUalN7oCMz1-6" value="ACCOUNTING" style="shape=process;whiteSpace=wrap;html=1;backgroundOutline=1;" vertex="1" parent="1">
          <mxGeometry x="626" y="380" width="120" height="60" as="geometry" />
        </mxCell>
        <mxCell id="--gUQ8pjljUalN7oCMz1-10" value="" style="verticalLabelPosition=bottom;html=1;verticalAlign=top;align=center;strokeColor=none;fillColor=#00BEF2;shape=mxgraph.azure.mobile;pointerEvents=1;" vertex="1" parent="1">
          <mxGeometry x="31.909999999999997" y="70" width="35" height="50" as="geometry" />
        </mxCell>
        <mxCell id="--gUQ8pjljUalN7oCMz1-11" value="" style="verticalLabelPosition=bottom;html=1;verticalAlign=top;align=center;strokeColor=none;fillColor=#00BEF2;shape=mxgraph.azure.website_generic;pointerEvents=1;" vertex="1" parent="1">
          <mxGeometry x="20" y="160" width="58.82" height="50" as="geometry" />
        </mxCell>
        <mxCell id="--gUQ8pjljUalN7oCMz1-32" style="edgeStyle=orthogonalEdgeStyle;rounded=0;orthogonalLoop=1;jettySize=auto;html=1;entryX=0.5;entryY=1;entryDx=0;entryDy=0;" edge="1" parent="1" source="--gUQ8pjljUalN7oCMz1-15" target="--gUQ8pjljUalN7oCMz1-23">
          <mxGeometry relative="1" as="geometry" />
        </mxCell>
        <mxCell id="--gUQ8pjljUalN7oCMz1-33" value="GET" style="edgeLabel;html=1;align=center;verticalAlign=middle;resizable=0;points=[];" vertex="1" connectable="0" parent="--gUQ8pjljUalN7oCMz1-32">
          <mxGeometry x="-0.7427" y="1" relative="1" as="geometry">
            <mxPoint x="27" y="1" as="offset" />
          </mxGeometry>
        </mxCell>
        <mxCell id="--gUQ8pjljUalN7oCMz1-15" value="API" style="sketch=0;html=1;dashed=0;whitespace=wrap;fillColor=#2875E2;strokeColor=#ffffff;points=[[0.005,0.63,0],[0.1,0.2,0],[0.9,0.2,0],[0.5,0,0],[0.995,0.63,0],[0.72,0.99,0],[0.5,1,0],[0.28,0.99,0]];verticalLabelPosition=bottom;align=center;verticalAlign=top;shape=mxgraph.kubernetes.icon;prIcon=api" vertex="1" parent="1">
          <mxGeometry x="338.82" y="210" width="50" height="48" as="geometry" />
        </mxCell>
        <mxCell id="--gUQ8pjljUalN7oCMz1-18" style="edgeStyle=orthogonalEdgeStyle;rounded=0;orthogonalLoop=1;jettySize=auto;html=1;entryX=0.5;entryY=1;entryDx=0;entryDy=0;" edge="1" parent="1" source="--gUQ8pjljUalN7oCMz1-17" target="--gUQ8pjljUalN7oCMz1-23">
          <mxGeometry relative="1" as="geometry">
            <mxPoint x="336" y="180" as="targetPoint" />
          </mxGeometry>
        </mxCell>
        <mxCell id="--gUQ8pjljUalN7oCMz1-17" value="STAGING" style="verticalLabelPosition=bottom;html=1;verticalAlign=top;align=center;strokeColor=none;fillColor=#00BEF2;shape=mxgraph.azure.website_generic;pointerEvents=1;" vertex="1" parent="1">
          <mxGeometry x="330" y="410" width="58.82" height="50" as="geometry" />
        </mxCell>
        <mxCell id="--gUQ8pjljUalN7oCMz1-22" style="edgeStyle=orthogonalEdgeStyle;rounded=0;orthogonalLoop=1;jettySize=auto;html=1;exitX=0;exitY=0.5;exitDx=0;exitDy=0;" edge="1" parent="1" source="--gUQ8pjljUalN7oCMz1-20">
          <mxGeometry relative="1" as="geometry">
            <mxPoint x="210" y="140.29032258064512" as="targetPoint" />
          </mxGeometry>
        </mxCell>
        <mxCell id="--gUQ8pjljUalN7oCMz1-20" value="DB GASPRO" style="shape=datastore;whiteSpace=wrap;html=1;" vertex="1" parent="1">
          <mxGeometry x="230" y="110" width="60" height="60" as="geometry" />
        </mxCell>
        <mxCell id="--gUQ8pjljUalN7oCMz1-24" style="edgeStyle=orthogonalEdgeStyle;rounded=0;orthogonalLoop=1;jettySize=auto;html=1;" edge="1" parent="1" source="--gUQ8pjljUalN7oCMz1-23" target="--gUQ8pjljUalN7oCMz1-20">
          <mxGeometry relative="1" as="geometry" />
        </mxCell>
        <mxCell id="--gUQ8pjljUalN7oCMz1-23" value="DB MAXIMO" style="shape=datastore;whiteSpace=wrap;html=1;" vertex="1" parent="1">
          <mxGeometry x="480" y="110" width="60" height="60" as="geometry" />
        </mxCell>
        <mxCell id="--gUQ8pjljUalN7oCMz1-26" style="edgeStyle=orthogonalEdgeStyle;rounded=0;orthogonalLoop=1;jettySize=auto;html=1;" edge="1" parent="1" source="--gUQ8pjljUalN7oCMz1-25" target="--gUQ8pjljUalN7oCMz1-6">
          <mxGeometry relative="1" as="geometry" />
        </mxCell>
        <mxCell id="--gUQ8pjljUalN7oCMz1-27" style="edgeStyle=orthogonalEdgeStyle;rounded=0;orthogonalLoop=1;jettySize=auto;html=1;entryX=1;entryY=0.5;entryDx=0;entryDy=0;" edge="1" parent="1" source="--gUQ8pjljUalN7oCMz1-25" target="--gUQ8pjljUalN7oCMz1-23">
          <mxGeometry relative="1" as="geometry" />
        </mxCell>
        <mxCell id="--gUQ8pjljUalN7oCMz1-25" value="DB SAP" style="shape=datastore;whiteSpace=wrap;html=1;" vertex="1" parent="1">
          <mxGeometry x="656" y="110" width="60" height="60" as="geometry" />
        </mxCell>
        <mxCell id="--gUQ8pjljUalN7oCMz1-29" style="edgeStyle=orthogonalEdgeStyle;rounded=0;orthogonalLoop=1;jettySize=auto;html=1;entryX=0.5;entryY=1;entryDx=0;entryDy=0;" edge="1" parent="1" source="--gUQ8pjljUalN7oCMz1-28" target="--gUQ8pjljUalN7oCMz1-23">
          <mxGeometry relative="1" as="geometry">
            <mxPoint x="340" y="170" as="targetPoint" />
          </mxGeometry>
        </mxCell>
        <mxCell id="--gUQ8pjljUalN7oCMz1-28" value="DBLINK" style="shape=datastore;whiteSpace=wrap;html=1;" vertex="1" parent="1">
          <mxGeometry x="333.82" y="310" width="60" height="60" as="geometry" />
        </mxCell>
      </root>
    </mxGraphModel>
  </diagram>
</mxfile>
